<svg width="58" height="22" viewBox="0 0 58 22" fill="none" xmlns="http://www.w3.org/2000/svg">
<path fill-rule="evenodd" clip-rule="evenodd" d="M57.7725 5.04722C58.0758 5.35051 58.0758 5.84044 57.7725 6.14373L56.3494 7.56687L53.4331 4.6506L54.8563 3.22747C55.1596 2.92418 55.6495 2.92418 55.9528 3.22747L57.7725 5.04722ZM44 17V14.0837L52.601 5.48271L55.5173 8.39897L46.9163 17H44Z" fill="#22B8C6"/>
<path d="M8.01562 17H1.4375V5.57812H8.01562V7.5625H3.85938V10.0703H7.72656V12.0547H3.85938V15H8.01562V17ZM13.9844 17.1562C12.9583 17.1562 12.151 16.7578 11.5625 15.9609C10.9792 15.1641 10.6875 14.0599 10.6875 12.6484C10.6875 11.2161 10.9844 10.1016 11.5781 9.30469C12.1771 8.5026 13 8.10156 14.0469 8.10156C15.1458 8.10156 15.9844 8.52865 16.5625 9.38281H16.6406C16.5208 8.73177 16.4609 8.15104 16.4609 7.64062V4.84375H18.8516V17H17.0234L16.5625 15.8672H16.4609C15.9193 16.7266 15.0938 17.1562 13.9844 17.1562ZM14.8203 15.2578C15.4297 15.2578 15.875 15.0807 16.1562 14.7266C16.4427 14.3724 16.599 13.7708 16.625 12.9219V12.6641C16.625 11.7266 16.4792 11.0547 16.1875 10.6484C15.901 10.2422 15.4323 10.0391 14.7812 10.0391C14.25 10.0391 13.8359 10.2656 13.5391 10.7188C13.2474 11.1667 13.1016 11.8203 13.1016 12.6797C13.1016 13.5391 13.25 14.1849 13.5469 14.6172C13.8438 15.0443 14.2682 15.2578 14.8203 15.2578ZM22.2422 6.00781C22.2422 5.23177 22.6745 4.84375 23.5391 4.84375C24.4036 4.84375 24.8359 5.23177 24.8359 6.00781C24.8359 6.3776 24.7266 6.66667 24.5078 6.875C24.2943 7.07812 23.9714 7.17969 23.5391 7.17969C22.6745 7.17969 22.2422 6.78906 22.2422 6.00781ZM24.7266 17H22.3438V8.26562H24.7266V17ZM31.9141 15.2578C32.3307 15.2578 32.8307 15.1667 33.4141 14.9844V16.7578C32.8203 17.0234 32.0911 17.1562 31.2266 17.1562C30.2734 17.1562 29.5781 16.9167 29.1406 16.4375C28.7083 15.9531 28.4922 15.2292 28.4922 14.2656V10.0547H27.3516V9.04688L28.6641 8.25L29.3516 6.40625H30.875V8.26562H33.3203V10.0547H30.875V14.2656C30.875 14.6042 30.9688 14.8542 31.1562 15.0156C31.349 15.1771 31.6016 15.2578 31.9141 15.2578Z" fill="#22B8C6"/>
</svg>
