<svg width="200" height="242" viewBox="0 0 200 242" fill="none" xmlns="http://www.w3.org/2000/svg">
<rect width="200" height="242" rx="10" fill="#B4BEC7"/>
<path d="M169 186H31V181.445C31 150.77 51.5276 123.449 80.9221 115.002L83.2841 114.323L85.1461 115.932C89.2646 119.493 94.5406 121.453 100 121.453C105.459 121.453 110.735 119.493 114.854 115.932L116.716 114.323L119.078 115.002C148.472 123.449 169 150.772 169 181.445V186ZM40.2662 176.89H159.734C157.893 152.905 141.667 131.993 118.773 124.437C113.346 128.404 106.774 130.562 100 130.562C93.2257 130.562 86.6542 128.404 81.2273 124.439C58.3328 131.993 42.1071 152.905 40.2662 176.89Z" fill="white"/>
<path d="M100 114.617C93.0065 114.617 86.2452 112.105 80.9594 107.538C74.4805 102.002 70.7533 93.8906 70.7533 85.299C70.7533 69.1419 83.8734 56 100 56C116.127 56 129.247 69.1436 129.247 85.299C129.247 93.8906 125.52 102.002 119.021 107.555C113.755 112.105 106.994 114.617 100 114.617ZM100 65.1088C88.888 65.1088 79.8474 74.1655 79.8474 85.2973C79.8474 91.2186 82.4124 96.8032 86.8815 100.622C90.5877 103.822 95.1169 105.505 100.002 105.505C104.886 105.505 109.416 103.822 113.101 100.636C117.589 96.8016 120.154 91.217 120.154 85.2957C120.153 74.1655 111.112 65.1088 100 65.1088Z" fill="white"/>
</svg>
