<svg width="40" height="40" viewBox="0 0 40 40" fill="none" xmlns="http://www.w3.org/2000/svg">
<circle cx="20" cy="20" r="20" fill="#22B8C6"/>
<path d="M24.0195 16.0039C24.0195 16.9089 23.7559 17.6641 23.2285 18.2695C22.7012 18.8685 21.959 19.2721 21.002 19.4805V19.5586C22.1478 19.7018 23.0072 20.0599 23.5801 20.6328C24.153 21.1992 24.4395 21.9544 24.4395 22.8984C24.4395 24.2721 23.9544 25.3333 22.9844 26.082C22.0143 26.8242 20.6341 27.1953 18.8438 27.1953C17.2617 27.1953 15.9271 26.9382 14.8398 26.4238V24.3828C15.4453 24.6823 16.0866 24.9134 16.7637 25.0762C17.4408 25.2389 18.0918 25.3203 18.7168 25.3203C19.8236 25.3203 20.6504 25.1152 21.1973 24.7051C21.7441 24.2949 22.0176 23.6602 22.0176 22.8008C22.0176 22.0391 21.7148 21.4792 21.1094 21.1211C20.5039 20.763 19.5534 20.584 18.2578 20.584H17.0176V18.7188H18.2773C20.556 18.7188 21.6953 17.931 21.6953 16.3555C21.6953 15.7435 21.4967 15.2715 21.0996 14.9395C20.7025 14.6074 20.1165 14.4414 19.3418 14.4414C18.8014 14.4414 18.2806 14.5195 17.7793 14.6758C17.278 14.8255 16.6855 15.1217 16.002 15.5645L14.8789 13.9629C16.1875 12.9993 17.7077 12.5176 19.4395 12.5176C20.8783 12.5176 22.0013 12.8268 22.8086 13.4453C23.6159 14.0638 24.0195 14.9167 24.0195 16.0039Z" fill="white"/>
</svg>
