<svg width="40" height="40" viewBox="0 0 40 40" fill="none" xmlns="http://www.w3.org/2000/svg">
<circle cx="20" cy="20" r="20" fill="#22B8C6"/>
<path d="M24.5664 27H14.8984V25.2715L18.5996 21.5215C19.3158 20.7923 19.9049 20.1641 20.3672 19.6367C20.8294 19.1029 21.1712 18.5983 21.3926 18.123C21.6204 17.6478 21.7344 17.1302 21.7344 16.5703C21.7344 15.8802 21.5358 15.3594 21.1387 15.0078C20.7415 14.6497 20.2174 14.4707 19.5664 14.4707C18.9479 14.4707 18.375 14.5944 17.8477 14.8418C17.3268 15.0827 16.7865 15.4277 16.2266 15.877L14.9668 14.3633C15.3639 14.0247 15.7871 13.7155 16.2363 13.4355C16.6921 13.1556 17.1999 12.9342 17.7598 12.7715C18.3197 12.6022 18.9577 12.5176 19.6738 12.5176C20.5788 12.5176 21.36 12.6803 22.0176 13.0059C22.6751 13.3249 23.1797 13.7708 23.5312 14.3438C23.8893 14.9167 24.0684 15.584 24.0684 16.3457C24.0684 17.1139 23.9154 17.8236 23.6094 18.4746C23.3034 19.1257 22.8672 19.7702 22.3008 20.4082C21.7344 21.0397 21.0605 21.7266 20.2793 22.4688L17.8086 24.8809V24.9883H24.5664V27Z" fill="white"/>
</svg>
